<svg version="1.1" id="Layer_1" xmlns="http://www.w3.org/2000/svg" xmlns:xlink="http://www.w3.org/1999/xlink" x="0px" y="0px"
	 width="100%" viewBox="0 0 460 460" enable-background="new 0 0 460 460" xml:space="preserve">
<path fill="#000000" opacity="1.000000" stroke="none" 
	d="
M1.000000,202.000000 
	C1.000000,135.072968 1.000000,68.145927 1.000000,1.000000 
	C67.687401,1.000000 134.375046,1.000000 201.865829,1.336083 
	C201.996643,2.100717 201.373383,2.776180 200.644669,2.921013 
	C188.522064,5.330400 176.212860,7.028403 164.306946,10.230093 
	C154.344269,12.909220 144.550980,16.702061 135.227509,21.145067 
	C124.867043,26.082245 114.819908,31.848333 105.199165,38.117252 
	C95.951408,44.143131 87.160255,50.957119 78.664879,58.021744 
	C72.238449,63.365860 66.318909,69.399696 60.682968,75.590157 
	C55.714600,81.047356 51.451336,87.146492 46.566051,93.096985 
	C38.232834,104.215431 30.312223,115.260895 25.012627,128.316589 
	C22.202826,134.745514 19.548630,140.848679 16.572201,147.135193 
	C13.792098,154.532944 11.334232,161.747360 8.539633,169.174164 
	C7.191049,175.924286 6.179197,182.462051 4.981215,189.360199 
	C4.196456,192.824936 3.714293,195.958878 2.936778,199.017746 
	C2.660252,200.105652 1.666400,201.011200 1.000000,202.000000 
z"/>
<path fill="#000000" opacity="1.000000" stroke="none" 
	d="
M461.000000,259.000000 
	C461.000000,326.260345 461.000000,393.520721 461.000000,461.000000 
	C393.979279,461.000000 326.958282,461.000000 259.226807,460.624420 
	C259.237366,459.858521 259.917358,459.261292 260.685577,459.108948 
	C272.805603,456.705292 285.106628,454.992767 297.014343,451.806915 
	C307.308838,449.052643 317.473907,445.308502 327.119843,440.775513 
	C337.222717,436.027863 346.764618,430.024902 356.322662,424.195099 
	C367.929077,417.115936 378.966705,409.228851 388.452087,398.906281 
	C392.908356,394.634521 397.057220,390.492645 401.484192,386.153687 
	C406.888031,379.641876 412.013733,373.327179 417.438782,366.854950 
	C421.770050,360.465149 425.802002,354.232819 429.989868,347.679047 
	C433.041962,341.571381 435.938110,335.785156 438.992859,329.677643 
	C441.378601,323.904175 443.605743,318.451965 445.997314,312.667603 
	C448.052429,306.890442 449.943146,301.445404 452.003967,295.660828 
	C453.393829,289.880615 454.613556,284.440033 455.915771,278.600555 
	C456.943115,272.466431 457.888000,266.731201 458.961182,260.636353 
	C459.726318,259.851166 460.363159,259.425568 461.000000,259.000000 
z"/>
<path fill="#000000" opacity="1.000000" stroke="none" 
	d="
M260.000000,0.999998 
	C326.927032,1.000000 393.854034,1.000000 461.000000,1.000000 
	C461.000000,67.687401 461.000000,134.375046 460.739136,201.952789 
	C459.596741,199.108627 458.715179,195.374374 457.864624,191.205780 
	C456.638641,184.836411 455.381683,178.901337 454.071045,172.565521 
	C451.956085,166.107544 449.894806,160.050323 447.897644,153.617432 
	C445.676422,147.479919 443.391113,141.718079 441.052490,135.595612 
	C437.372223,128.477005 433.745270,121.719025 430.061401,114.601562 
	C426.587708,108.928345 423.307312,103.519852 419.704987,98.335060 
	C417.400024,95.017548 414.619598,92.030373 411.914062,88.584167 
	C410.885651,87.300812 409.972198,86.348549 409.109039,85.352684 
	C403.313080,78.665565 397.847656,71.652985 391.639954,65.373749 
	C386.478790,60.153133 380.626678,55.557255 374.761780,51.104591 
	C366.347717,44.716637 358.062256,37.984791 348.953308,32.732777 
	C338.547150,26.732819 327.379303,22.014605 316.396606,17.062847 
	C299.061737,9.247049 280.707092,5.200558 261.906036,2.915485 
	C261.203461,2.830096 260.632355,1.663004 260.000000,0.999998 
z"/>
<path fill="#000000" opacity="1.000000" stroke="none" 
	d="
M202.000000,461.000000 
	C135.072983,461.000000 68.145958,461.000000 1.000000,461.000000 
	C1.000000,394.312592 1.000000,327.624969 1.344257,260.162292 
	C2.177404,261.587341 2.666294,263.787384 3.221342,266.378845 
	C4.543795,272.846741 5.800091,278.923279 7.033077,285.412231 
	C8.991870,292.251312 10.973971,298.677948 12.983459,305.480591 
	C14.835054,310.284576 16.659266,314.712555 18.518101,319.543579 
	C20.995668,324.977905 23.438612,330.009247 25.939518,335.407898 
	C29.297056,341.532227 32.596630,347.289215 36.042904,353.368713 
	C40.421959,359.808929 44.654308,365.926666 49.031342,372.360016 
	C53.743877,377.799835 58.311726,382.924072 63.021431,388.363708 
	C68.069901,393.466248 72.976509,398.253387 78.023438,403.350555 
	C81.804840,406.638153 85.320145,409.788025 89.113205,412.557465 
	C96.982872,418.303497 104.609871,424.540741 113.057602,429.294983 
	C123.077072,434.933746 133.904755,439.121552 144.294037,444.121338 
	C162.099335,452.690033 181.076401,456.717621 200.520844,459.088745 
	C201.083221,459.157349 201.509995,460.337921 202.000000,461.000000 
z"/>
<path fill="#FF8900" opacity="1.000000" stroke="none" 
	d="
M259.531342,0.999998 
	C260.632355,1.663004 261.203461,2.830096 261.906036,2.915485 
	C280.707092,5.200558 299.061737,9.247049 316.396606,17.062847 
	C327.379303,22.014605 338.547150,26.732819 348.953308,32.732777 
	C358.062256,37.984791 366.347717,44.716637 374.761780,51.104591 
	C380.626678,55.557255 386.478790,60.153133 391.639954,65.373749 
	C397.847656,71.652985 403.313080,78.665565 409.109039,85.352684 
	C409.972198,86.348549 410.885651,87.300812 411.563416,88.812462 
	C401.996979,89.568466 392.636780,89.652916 383.293121,90.091011 
	C380.822418,90.206856 378.402863,91.412521 375.641785,91.961174 
	C370.817383,86.992523 366.797424,81.568794 361.692535,77.509422 
	C353.710876,71.162430 345.006195,65.722466 336.584412,59.932270 
	C333.244629,57.636082 330.084930,54.866886 326.422363,53.291592 
	C316.124176,48.862301 305.610443,44.933571 295.175873,40.822197 
	C278.160065,34.117702 260.454773,30.446779 242.238144,29.653133 
	C224.416245,28.876678 206.608276,29.367508 189.213760,34.001938 
	C180.564682,36.306313 171.792526,38.412651 163.478561,41.644150 
	C153.091843,45.681301 143.012863,50.568871 133.010696,55.513428 
	C127.529068,58.223270 122.313820,61.567654 117.276360,65.056107 
	C110.988365,69.410568 104.706581,73.866638 98.978279,78.910461 
	C93.304039,83.906693 88.321419,89.688377 82.796387,94.811966 
	C80.549866,94.000069 78.548935,93.103882 76.533844,93.070801 
	C66.650208,92.908562 56.762787,92.975922 46.876709,92.962158 
	C51.451336,87.146492 55.714600,81.047356 60.682968,75.590157 
	C66.318909,69.399696 72.238449,63.365860 78.664879,58.021744 
	C87.160255,50.957119 95.951408,44.143131 105.199165,38.117252 
	C114.819908,31.848333 124.867043,26.082245 135.227509,21.145067 
	C144.550980,16.702061 154.344269,12.909220 164.306946,10.230093 
	C176.212860,7.028403 188.522064,5.330400 200.644669,2.921013 
	C201.373383,2.776180 201.996643,2.100717 202.334488,1.336083 
	C221.020889,1.000000 240.041794,1.000000 259.531342,0.999998 
z"/>
<path fill="#C757BC" opacity="1.000000" stroke="none" 
	d="
M202.468658,461.000000 
	C201.509995,460.337921 201.083221,459.157349 200.520844,459.088745 
	C181.076401,456.717621 162.099335,452.690033 144.294037,444.121338 
	C133.904755,439.121552 123.077072,434.933746 113.057602,429.294983 
	C104.609871,424.540741 96.982872,418.303497 89.113205,412.557465 
	C85.320145,409.788025 81.804840,406.638153 78.439293,403.259888 
	C86.780388,402.573181 94.847694,402.328552 102.910965,401.988251 
	C109.650993,401.703888 116.386292,401.307678 123.440186,401.103058 
	C144.199341,414.397644 166.639252,422.384674 190.152603,428.198212 
	C212.362534,433.689453 252.344849,433.569031 262.846680,429.173981 
	C260.251740,426.647644 257.823303,424.163818 255.267929,421.818329 
	C247.987289,415.135651 242.993118,406.896027 239.356934,398.031616 
	C250.468536,397.706360 261.104034,397.389343 272.051361,397.236176 
	C273.551727,398.518616 274.649750,399.757477 275.945709,400.733398 
	C279.893127,403.705902 283.562866,407.379730 287.981140,409.328491 
	C298.789764,414.095917 309.888672,411.925690 320.386169,408.086395 
	C328.208710,405.225433 335.481506,400.861389 343.197266,397.490662 
	C344.111298,398.180328 344.829041,398.867371 345.542816,398.863220 
	C354.984436,398.808777 364.425262,398.582458 373.866699,398.561157 
	C378.625641,398.550415 383.385315,398.867371 388.144653,399.036163 
	C378.966705,409.228851 367.929077,417.115936 356.322662,424.195099 
	C346.764618,430.024902 337.222717,436.027863 327.119843,440.775513 
	C317.473907,445.308502 307.308838,449.052643 297.014343,451.806915 
	C285.106628,454.992767 272.805603,456.705292 260.685577,459.108948 
	C259.917358,459.261292 259.237366,459.858521 258.758179,460.624420 
	C240.312439,461.000000 221.624878,461.000000 202.468658,461.000000 
z"/>
<path fill="#E77451" opacity="1.000000" stroke="none" 
	d="
M1.000000,247.000000 
	C1.000000,240.312363 1.000000,233.624710 1.468657,226.468887 
	C11.146644,226.005829 20.355974,226.010956 29.539768,226.482834 
	C29.620432,233.633316 29.726635,240.317062 29.374659,247.000824 
	C19.610987,247.000580 10.305493,247.000290 1.000000,247.000000 
z"/>
<path fill="#EB7744" opacity="1.000000" stroke="none" 
	d="
M29.565304,226.016083 
	C20.355974,226.010956 11.146644,226.005829 1.468657,226.000351 
	C1.000000,219.645599 1.000000,213.291214 1.468643,206.464310 
	C11.569200,205.994186 21.201113,205.996567 30.903641,206.431458 
	C30.504604,213.248032 30.034954,219.632065 29.565304,226.016083 
z"/>
<path fill="#E4705C" opacity="1.000000" stroke="none" 
	d="
M1.000000,247.463181 
	C10.305493,247.000290 19.610987,247.000580 29.445206,247.424744 
	C30.926905,253.899078 31.879879,259.949524 32.374672,266.000000 
	C22.329390,265.995819 12.742289,265.991638 3.155185,265.987457 
	C2.666294,263.787384 2.177404,261.587341 1.344257,259.693634 
	C1.000000,255.975449 1.000000,251.950912 1.000000,247.463181 
z"/>
<path fill="#EC7840" opacity="1.000000" stroke="none" 
	d="
M457.833618,191.640106 
	C458.715179,195.374374 459.596741,199.108627 460.739136,202.421448 
	C461.000000,204.370560 461.000000,206.741104 460.573761,209.565826 
	C450.487610,210.343262 440.827698,210.666519 431.097595,210.552551 
	C430.311859,204.090332 429.596375,198.065308 429.356934,192.032593 
	C439.166534,191.896622 448.500061,191.768372 457.833618,191.640106 
z"/>
<path fill="#E4705C" opacity="1.000000" stroke="none" 
	d="
M461.000000,258.533142 
	C460.363159,259.425568 459.726318,259.851166 458.503174,260.636902 
	C448.666870,260.996857 439.416901,260.996674 430.098389,260.577667 
	C430.742462,254.437698 431.455078,248.716599 432.625854,242.995789 
	C442.389313,242.997406 451.694672,242.998703 461.000000,243.000000 
	C461.000000,248.022095 461.000000,253.044189 461.000000,258.533142 
z"/>
<path fill="#EE7A3A" opacity="1.000000" stroke="none" 
	d="
M30.833027,205.998932 
	C21.201113,205.996567 11.569200,205.994186 1.468643,205.995911 
	C1.000000,204.933334 1.000000,203.866653 1.000000,202.399994 
	C1.666400,201.011200 2.660252,200.105652 2.936778,199.017746 
	C3.714293,195.958878 4.196456,192.824936 5.423515,189.360199 
	C15.406864,188.680008 24.761780,188.360214 34.067486,188.460236 
	C32.956528,194.586349 31.894777,200.292633 30.833027,205.998932 
z"/>
<path fill="#E77451" opacity="1.000000" stroke="none" 
	d="
M461.000000,242.532394 
	C451.694672,242.998703 442.389313,242.997406 432.555786,242.532043 
	C432.147583,236.710648 432.267578,231.353333 432.737305,226.175720 
	C442.391327,226.236938 451.695648,226.118469 461.000000,226.000000 
	C461.000000,231.354935 461.000000,236.709854 461.000000,242.532394 
z"/>
<path fill="#EA7649" opacity="1.000000" stroke="none" 
	d="
M461.000000,225.533142 
	C451.695648,226.118469 442.391327,226.236938 432.574951,225.738098 
	C431.764526,220.410446 431.466156,215.700104 431.167786,210.989777 
	C440.827698,210.666519 450.487610,210.343262 460.573761,210.010010 
	C461.000000,215.022095 461.000000,220.044189 461.000000,225.533142 
z"/>
<path fill="#FB860B" opacity="1.000000" stroke="none" 
	d="
M46.566048,93.096985 
	C56.762787,92.975922 66.650208,92.908562 76.533844,93.070801 
	C78.548935,93.103882 80.549866,94.000069 82.663361,95.121147 
	C80.602303,97.922455 78.118462,99.869400 76.325562,102.321526 
	C70.128387,110.797325 64.171913,119.449127 57.651913,128.025696 
	C52.580208,128.284332 47.978924,128.788116 43.380951,128.759506 
	C37.308685,128.721710 31.239016,128.266571 25.168230,127.990845 
	C30.312223,115.260895 38.232834,104.215431 46.566048,93.096985 
z"/>
<path fill="#F47F25" opacity="1.000000" stroke="none" 
	d="
M8.876367,168.961777 
	C11.334232,161.747360 13.792098,154.532944 16.964392,147.295929 
	C27.729668,147.512314 37.780514,147.751312 47.792732,148.347076 
	C46.839748,150.595840 45.803650,152.439789 45.034554,154.389099 
	C42.976097,159.606339 41.032124,164.868759 38.693642,169.883453 
	C28.521864,169.423065 18.699116,169.192429 8.876367,168.961777 
z"/>
<path fill="#F88317" opacity="1.000000" stroke="none" 
	d="
M47.831367,147.990295 
	C37.780514,147.751312 27.729668,147.512314 17.286629,147.112579 
	C19.548630,140.848679 22.202826,134.745514 25.012627,128.316589 
	C31.239016,128.266571 37.308685,128.721710 43.380951,128.759506 
	C47.978924,128.788116 52.580208,128.284332 57.593414,128.384186 
	C54.615002,135.164032 51.223186,141.577164 47.831367,147.990295 
z"/>
<path fill="#F17C30" opacity="1.000000" stroke="none" 
	d="
M8.539634,169.174164 
	C18.699116,169.192429 28.521864,169.423065 38.675926,170.285675 
	C37.377060,176.625244 35.746880,182.332840 34.116695,188.040421 
	C24.761780,188.360214 15.406864,188.680008 5.609647,188.999802 
	C6.179197,182.462051 7.191049,175.924286 8.539634,169.174164 
z"/>
<path fill="#CC5BA9" opacity="1.000000" stroke="none" 
	d="
M417.139435,367.012451 
	C412.013733,373.327179 406.888031,379.641876 401.138000,385.891998 
	C398.565704,385.551666 396.619873,385.056305 394.669495,385.037750 
	C385.683929,384.952209 376.696259,385.063385 367.711334,384.948456 
	C365.790588,384.923889 363.878082,384.251923 362.096985,383.567383 
	C368.119934,377.488525 374.007690,371.720490 380.287598,366.112976 
	C382.625244,366.515015 384.569336,366.951294 386.516571,366.965515 
	C396.723755,367.040039 406.931732,367.007690 417.139435,367.012451 
z"/>
<path fill="#D15F9D" opacity="1.000000" stroke="none" 
	d="
M417.438782,366.854980 
	C406.931732,367.007690 396.723755,367.040039 386.516571,366.965515 
	C384.569336,366.951294 382.625244,366.515015 380.428772,365.797791 
	C382.262421,363.080688 384.436401,360.914917 386.411255,358.580658 
	C389.662933,354.737244 392.785736,350.784821 396.310547,347.109680 
	C398.954254,347.560242 401.248779,347.948944 403.546478,347.968658 
	C412.308441,348.043762 421.071381,347.999939 429.833954,348.000519 
	C425.802002,354.232819 421.770050,360.465149 417.438782,366.854980 
z"/>
<path fill="#C959B3" opacity="1.000000" stroke="none" 
	d="
M361.961792,383.878174 
	C363.878082,384.251923 365.790588,384.923889 367.711334,384.948456 
	C376.696259,385.063385 385.683929,384.952209 394.669495,385.037750 
	C396.619873,385.056305 398.565704,385.551666 400.859863,386.089111 
	C397.057220,390.492645 392.908356,394.634521 388.452087,398.906281 
	C383.385315,398.867371 378.625641,398.550415 373.866699,398.561157 
	C364.425262,398.582458 354.984436,398.808777 345.542816,398.863220 
	C344.829041,398.867371 344.111298,398.180328 343.513977,397.337524 
	C349.742340,392.533051 355.852051,388.205627 361.961792,383.878174 
z"/>
<path fill="#D36292" opacity="1.000000" stroke="none" 
	d="
M429.989868,347.679047 
	C421.071381,347.999939 412.308441,348.043762 403.546478,347.968658 
	C401.248779,347.948944 398.954254,347.560242 396.456360,346.785889 
	C399.795837,340.473083 403.337158,334.715302 407.293274,329.047913 
	C412.483185,329.256134 417.258667,329.362183 422.033386,329.495056 
	C427.634003,329.650848 433.234009,329.829956 438.834290,329.998932 
	C435.938110,335.785156 433.041962,341.571381 429.989868,347.679047 
z"/>
<path fill="#D76587" opacity="1.000000" stroke="none" 
	d="
M438.992859,329.677643 
	C433.234009,329.829956 427.634003,329.650848 422.033386,329.495056 
	C417.258667,329.362183 412.483185,329.256134 407.447205,328.718201 
	C409.749817,323.184814 412.313293,318.071442 415.353088,312.966553 
	C425.830597,312.983276 435.831757,312.991547 445.832916,312.999786 
	C443.605743,318.451965 441.378601,323.904175 438.992859,329.677643 
z"/>
<path fill="#DD6A73" opacity="1.000000" stroke="none" 
	d="
M455.833313,278.999420 
	C454.613556,284.440033 453.393829,289.880615 451.545898,295.660645 
	C440.955048,296.002167 430.992401,296.004303 421.036621,295.619476 
	C422.990082,289.474854 424.936676,283.717224 427.276794,278.118164 
	C437.058014,278.517670 446.445648,278.758545 455.833313,278.999420 
z"/>
<path fill="#E16D68" opacity="1.000000" stroke="none" 
	d="
M455.915771,278.600555 
	C446.445648,278.758545 437.058014,278.517670 427.326111,277.701111 
	C428.043549,271.749146 429.105225,266.372833 430.166901,260.996521 
	C439.416901,260.996674 448.666870,260.996857 458.374878,260.996460 
	C457.888000,266.731201 456.943115,272.466431 455.915771,278.600555 
z"/>
<path fill="#DA677E" opacity="1.000000" stroke="none" 
	d="
M421.029724,296.006439 
	C430.992401,296.004303 440.955048,296.002167 451.375793,296.000214 
	C449.943146,301.445404 448.052429,306.890442 445.997314,312.667603 
	C435.831757,312.991547 425.830597,312.983276 415.413239,312.595276 
	C417.007935,306.812500 419.018829,301.409454 421.029724,296.006439 
z"/>
<path fill="#FB860B" opacity="1.000000" stroke="none" 
	d="
M375.959808,92.117767 
	C378.402863,91.412521 380.822418,90.206856 383.293121,90.091011 
	C392.636780,89.652916 401.996979,89.568466 411.701660,89.123398 
	C414.619598,92.030373 417.400024,95.017548 419.704987,98.335060 
	C423.307312,103.519852 426.587708,108.928345 429.586090,114.609482 
	C418.405365,115.330986 407.643036,115.685074 396.571594,115.902145 
	C389.494934,107.882675 382.727386,100.000214 375.959808,92.117767 
z"/>
<path fill="#F88317" opacity="1.000000" stroke="none" 
	d="
M396.880707,116.039154 
	C407.643036,115.685074 418.405365,115.330986 429.643005,114.968979 
	C433.745270,121.719025 437.372223,128.477005 440.626923,135.638779 
	C432.305328,136.361267 424.351227,136.596420 416.409760,137.052292 
	C414.183105,137.180130 411.993744,137.957520 409.502441,138.205841 
	C408.396820,136.397614 407.625000,134.792587 406.746460,133.248276 
	C403.476868,127.501099 400.172180,121.773880 396.880707,116.039154 
z"/>
<path fill="#F27D2B" opacity="1.000000" stroke="none" 
	d="
M447.833496,153.993103 
	C449.894806,160.050323 451.956085,166.107544 453.643616,172.606827 
	C443.476257,173.378342 433.682617,173.707779 423.568115,173.845444 
	C421.457794,167.780380 419.668365,161.907104 418.295044,155.943909 
	C428.418610,155.233704 438.126038,154.613403 447.833496,153.993103 
z"/>
<path fill="#F6811E" opacity="1.000000" stroke="none" 
	d="
M447.897644,153.617447 
	C438.126038,154.613403 428.418610,155.233704 417.979004,155.762451 
	C414.760315,149.926239 412.273804,144.181580 409.787262,138.436951 
	C411.993744,137.957520 414.183105,137.180130 416.409760,137.052292 
	C424.351227,136.596420 432.305328,136.361267 440.680237,135.999390 
	C443.391113,141.718079 445.676422,147.479919 447.897644,153.617447 
z"/>
<path fill="#EE7A3A" opacity="1.000000" stroke="none" 
	d="
M423.889008,174.037231 
	C433.682617,173.707779 443.476257,173.378342 453.697266,173.007584 
	C455.381683,178.901337 456.638641,184.836411 457.864624,191.205780 
	C448.500061,191.768372 439.166534,191.896622 429.025818,191.825546 
	C426.775452,185.763229 425.332245,179.900238 423.889008,174.037231 
z"/>
<path fill="#D15F9D" opacity="1.000000" stroke="none" 
	d="
M48.886654,372.044403 
	C44.654308,365.926666 40.421959,359.808929 36.435009,353.208191 
	C40.771362,352.483826 44.861378,352.225098 48.953476,352.005127 
	C55.674477,351.643890 62.396832,351.307831 69.425125,351.096802 
	C74.781624,356.984802 79.841057,362.728912 84.856018,368.511627 
	C85.131676,368.829468 85.037514,369.468079 84.699898,370.048828 
	C81.514183,370.427185 78.750252,370.848907 75.972801,370.976318 
	C66.946739,371.390350 57.915745,371.696625 48.886654,372.044403 
z"/>
<path fill="#C959B3" opacity="1.000000" stroke="none" 
	d="
M123.123688,400.960968 
	C116.386292,401.307678 109.650993,401.703888 102.910965,401.988251 
	C94.847694,402.328552 86.780388,402.573181 78.298973,402.949890 
	C72.976509,398.253387 68.069901,393.466248 63.495949,388.353760 
	C74.831558,387.683533 85.835854,387.373657 96.835793,386.950623 
	C98.249580,386.896271 99.640762,386.254333 101.402489,385.937897 
	C108.882942,390.981140 116.003319,395.971039 123.123688,400.960968 
z"/>
<path fill="#CC5BA9" opacity="1.000000" stroke="none" 
	d="
M101.042419,385.884583 
	C99.640762,386.254333 98.249580,386.896271 96.835793,386.950623 
	C85.835854,387.373657 74.831558,387.683533 63.354095,388.038330 
	C58.311726,382.924072 53.743877,377.799835 49.031342,372.360016 
	C57.915745,371.696625 66.946739,371.390350 75.972801,370.976318 
	C78.750252,370.848907 81.514183,370.427185 85.063553,370.069458 
	C86.835945,371.366669 87.671066,372.892456 88.851036,374.073822 
	C92.849007,378.076477 96.969040,381.957245 101.042419,385.884583 
z"/>
<path fill="#D36292" opacity="1.000000" stroke="none" 
	d="
M69.118614,350.961182 
	C62.396832,351.307831 55.674477,351.643890 48.953476,352.005127 
	C44.861378,352.225098 40.771362,352.483826 36.288307,352.885681 
	C32.596630,347.289215 29.297056,341.532227 26.415627,335.399719 
	C37.262573,334.670380 47.691380,334.316528 58.425999,334.126282 
	C62.194080,339.846985 65.656349,345.404083 69.118614,350.961182 
z"/>
<path fill="#DD6A73" opacity="1.000000" stroke="none" 
	d="
M12.956072,305.104584 
	C10.973971,298.677948 8.991870,292.251312 7.498097,285.412354 
	C17.697617,284.987427 27.408806,284.974854 37.444519,285.158997 
	C39.456890,291.241943 41.144737,297.128174 42.374969,303.011780 
	C39.767002,303.006104 37.603706,302.848816 35.468620,303.027863 
	C27.959204,303.657684 20.459476,304.403046 12.956072,305.104584 
z"/>
<path fill="#E16D68" opacity="1.000000" stroke="none" 
	d="
M37.119995,284.962280 
	C27.408806,284.974854 17.697617,284.987427 7.521406,284.999908 
	C5.800091,278.923279 4.543795,272.846741 3.221343,266.378845 
	C12.742289,265.991638 22.329390,265.995819 32.444881,266.410889 
	C34.355515,272.868622 35.737755,278.915466 37.119995,284.962280 
z"/>
<path fill="#D76587" opacity="1.000000" stroke="none" 
	d="
M58.120186,333.962708 
	C47.691380,334.316528 37.262573,334.670380 26.357664,335.032379 
	C23.438612,330.009247 20.995668,324.977905 19.020611,319.516876 
	C29.364841,318.711273 39.241188,318.335419 49.435547,318.107178 
	C52.542431,323.490753 55.331310,328.726715 58.120186,333.962708 
z"/>
<path fill="#DA677E" opacity="1.000000" stroke="none" 
	d="
M49.117538,317.959564 
	C39.241188,318.335419 29.364841,318.711273 18.985985,319.113861 
	C16.659266,314.712555 14.835054,310.284576 12.983458,305.480591 
	C20.459476,304.403046 27.959204,303.657684 35.468620,303.027863 
	C37.603706,302.848816 39.767002,303.006104 42.452858,303.377136 
	C45.031418,308.483276 47.074478,313.221436 49.117538,317.959564 
z"/>
<path fill="#000000" opacity="1.000000" stroke="none" 
	d="
M49.435547,318.107178 
	C47.074478,313.221436 45.031418,308.483276 42.910469,303.379761 
	C41.144737,297.128174 39.456890,291.241943 37.444519,285.158997 
	C35.737755,278.915466 34.355515,272.868622 32.903061,266.410889 
	C31.879879,259.949524 30.926905,253.899078 29.903385,247.424713 
	C29.726635,240.317062 29.620432,233.633316 29.539768,226.482849 
	C30.034954,219.632065 30.504604,213.248032 30.903641,206.431458 
	C31.894777,200.292633 32.956528,194.586349 34.067486,188.460236 
	C35.746880,182.332840 37.377060,176.625244 39.024956,170.515442 
	C41.032124,164.868759 42.976097,159.606339 45.034554,154.389099 
	C45.803650,152.439789 46.839748,150.595840 47.792740,148.347076 
	C51.223186,141.577164 54.615002,135.164032 58.065315,128.392410 
	C64.171913,119.449127 70.128387,110.797325 76.325562,102.321526 
	C78.118462,99.869400 80.602303,97.922455 82.902420,95.434738 
	C88.321419,89.688377 93.304039,83.906693 98.978279,78.910461 
	C104.706581,73.866638 110.988365,69.410568 117.276360,65.056107 
	C122.313820,61.567654 127.529068,58.223270 133.010696,55.513428 
	C143.012863,50.568871 153.091843,45.681301 163.478561,41.644150 
	C171.792526,38.412651 180.564682,36.306313 189.213760,34.001938 
	C206.608276,29.367508 224.416245,28.876678 242.238144,29.653133 
	C260.454773,30.446779 278.160065,34.117702 295.175873,40.822197 
	C305.610443,44.933571 316.124176,48.862301 326.422363,53.291592 
	C330.084930,54.866886 333.244629,57.636082 336.584412,59.932270 
	C345.006195,65.722466 353.710876,71.162430 361.692535,77.509422 
	C366.797424,81.568794 370.817383,86.992523 375.641785,91.961166 
	C382.727386,100.000214 389.494934,107.882675 396.571594,115.902145 
	C400.172180,121.773880 403.476868,127.501099 406.746460,133.248276 
	C407.625000,134.792587 408.396820,136.397614 409.502441,138.205841 
	C412.273804,144.181580 414.760315,149.926239 417.562866,155.852356 
	C419.668365,161.907104 421.457794,167.780380 423.568115,173.845459 
	C425.332245,179.900238 426.775452,185.763229 428.549774,191.833252 
	C429.596375,198.065308 430.311859,204.090332 431.097595,210.552551 
	C431.466156,215.700104 431.764526,220.410446 432.225250,225.558395 
	C432.267578,231.353333 432.147583,236.710648 432.097656,242.531723 
	C431.455078,248.716599 430.742462,254.437698 430.098389,260.577667 
	C429.105225,266.372833 428.043549,271.749146 426.932556,277.542511 
	C424.936676,283.717224 422.990082,289.474854 421.036621,295.619476 
	C419.018829,301.409454 417.007935,306.812500 414.936890,312.586792 
	C412.313293,318.071442 409.749817,323.184814 407.032440,328.627869 
	C403.337158,334.715302 399.795837,340.473083 396.108673,346.554596 
	C392.785736,350.784821 389.662933,354.737244 386.411255,358.580658 
	C384.436401,360.914917 382.262421,363.080688 380.036682,365.637299 
	C374.007690,371.720490 368.119934,377.488525 362.096985,383.567383 
	C355.852051,388.205627 349.742340,392.533051 343.315857,397.013641 
	C335.481506,400.861389 328.208710,405.225433 320.386169,408.086395 
	C309.888672,411.925690 298.789764,414.095917 287.981140,409.328491 
	C283.562866,407.379730 279.893127,403.705902 275.945709,400.733398 
	C274.649750,399.757477 273.551727,398.518616 271.952911,396.897400 
	C268.067078,390.248596 264.591492,384.102386 261.066895,377.551453 
	C259.028870,370.727509 257.039825,364.308319 255.028595,357.483521 
	C253.711823,351.707184 252.417236,346.336487 251.071548,340.536926 
	C250.068344,332.424103 249.116257,324.740173 248.293091,316.715515 
	C248.114182,311.705322 247.806335,307.035797 247.534058,302.905731 
	C256.439789,300.110626 265.222473,297.354156 274.358917,294.552155 
	C285.590576,290.202301 294.508942,283.579163 300.440979,272.849548 
	C301.454254,268.106934 302.143738,263.553650 302.903198,258.544250 
	C302.926788,254.392776 302.880432,250.697464 302.904022,246.568527 
	C302.927002,244.089508 302.880035,242.044113 302.903076,239.542633 
	C302.926636,235.391022 302.880157,231.695480 302.903564,227.546295 
	C302.926636,223.728470 302.879852,220.364304 302.903076,216.560181 
	C302.926697,213.746643 302.880280,211.373047 302.904114,208.549805 
	C302.927429,205.066666 302.880524,202.033157 302.903442,198.541229 
	C302.973267,194.483627 302.973267,190.884430 302.973267,187.304443 
	C254.354095,187.304443 206.337204,187.304443 158.166641,187.304443 
	C158.166641,192.071609 158.166641,196.535568 158.096008,201.449158 
	C158.072311,204.932373 158.119232,207.965927 158.096085,211.439423 
	C158.072876,214.252899 158.119720,216.626480 158.096222,219.453583 
	C158.072464,223.271454 158.119049,226.635757 158.095551,230.456207 
	C158.072403,234.607956 158.119324,238.303604 158.096161,242.432709 
	C158.072937,244.911652 158.119812,246.957153 158.096619,249.458588 
	C158.073441,253.609802 158.120346,257.305054 158.097290,261.434753 
	C157.444778,266.805695 158.608170,271.231171 161.938980,275.393738 
	C163.519379,277.843201 164.751862,280.252533 166.617615,281.976532 
	C173.400177,288.243744 180.895386,293.431335 190.346344,296.007172 
	C199.231796,298.479706 207.772675,300.778687 217.186874,303.312714 
	C217.390503,305.342560 217.624008,308.383911 218.024704,311.403137 
	C218.274673,313.286591 218.777100,315.136536 219.097168,317.440796 
	C220.074692,325.590729 221.121307,333.301392 222.099915,341.418884 
	C223.302139,348.217926 224.572342,354.610077 225.828949,361.418030 
	C227.861969,368.253937 229.908585,374.674133 231.975525,381.474976 
	C234.290833,387.250397 236.585831,392.645111 238.880814,398.039825 
	C242.993118,406.896027 247.987289,415.135651 255.267929,421.818329 
	C257.823303,424.163818 260.251740,426.647644 262.846680,429.173981 
	C252.344849,433.569031 212.362534,433.689453 190.152603,428.198212 
	C166.639252,422.384674 144.199341,414.397644 123.440186,401.103058 
	C116.003319,395.971039 108.882942,390.981140 101.402496,385.937866 
	C96.969040,381.957245 92.849007,378.076477 88.851036,374.073822 
	C87.671066,372.892456 86.835945,371.366669 85.479141,369.978027 
	C85.037514,369.468079 85.131676,368.829468 84.856018,368.511627 
	C79.841057,362.728912 74.781624,356.984802 69.425125,351.096802 
	C65.656349,345.404083 62.194080,339.846985 58.426003,334.126282 
	C55.331310,328.726715 52.542431,323.490753 49.435547,318.107178 
M168.026321,155.867081 
	C167.988556,160.792969 167.858643,165.746063 171.963470,169.472549 
	C175.119034,172.337250 192.655930,173.180847 195.757935,170.574554 
	C196.095474,170.290970 196.040482,169.560623 196.366638,169.239960 
	C200.790543,164.890396 200.018097,159.379776 199.972534,153.070328 
	C199.926254,147.380890 199.879974,141.691452 199.973953,135.093781 
	C199.982605,132.768921 200.061752,130.441803 199.987137,128.119614 
	C199.731888,120.175613 196.434555,116.996376 188.538071,116.996254 
	C184.386383,116.996193 180.213821,116.755333 176.092987,117.111977 
	C174.380447,117.260193 172.231125,118.269714 171.222672,119.601204 
	C167.294312,124.787956 167.795807,130.947067 168.023529,137.927475 
	C168.071960,143.616959 168.120392,149.306458 168.026321,155.867081 
M261.022644,145.924316 
	C261.015778,150.585800 260.752655,155.264175 261.058716,159.905014 
	C261.591553,167.983139 265.064850,172.736008 273.309021,172.044205 
	C276.615479,171.766724 279.981262,172.207886 283.290161,171.945419 
	C287.775726,171.589630 291.385681,169.299332 291.886444,164.689178 
	C292.630585,157.838120 292.558167,150.898376 292.971954,143.069717 
	C292.981110,138.586121 293.394440,134.058456 292.911469,129.628525 
	C292.030548,121.548584 291.290588,115.733772 280.513367,116.945930 
	C277.561615,117.277924 274.540802,116.995316 271.551697,116.996536 
	C265.217773,116.999138 263.024963,118.294327 262.107666,124.857582 
	C261.181427,131.485321 261.431519,138.277466 261.022644,145.924316 
z"/>
<path fill="#CA5AAF" opacity="1.000000" stroke="none" 
	d="
M239.356934,398.031616 
	C236.585831,392.645111 234.290833,387.250397 232.218536,381.165009 
	C234.614441,379.982971 236.768295,379.199097 238.964447,379.053650 
	C246.340134,378.565125 253.730911,378.304199 261.115906,377.956207 
	C264.591492,384.102386 268.067078,390.248596 271.641083,396.733582 
	C261.104034,397.389343 250.468536,397.706360 239.356934,398.031616 
z"/>
<path fill="#DF6C6E" opacity="1.000000" stroke="none" 
	d="
M190.001755,295.833588 
	C180.895386,293.431335 173.400177,288.243744 166.617615,281.976532 
	C164.751862,280.252533 163.519379,277.843201 162.415161,275.385742 
	C172.803116,274.683746 182.769867,274.224182 192.741806,274.029602 
	C214.038101,273.614044 235.336212,273.248016 256.635284,273.031891 
	C271.127716,272.884827 285.623108,273.026367 300.117157,273.038879 
	C294.508942,283.579163 285.590576,290.202301 274.137329,294.255249 
	C268.338959,293.669281 263.112915,293.008545 257.893494,293.057190 
	C236.850388,293.253387 215.808502,293.630463 194.769089,294.078552 
	C193.168243,294.112671 191.590332,295.223328 190.001755,295.833588 
z"/>
<path fill="#E26F63" opacity="1.000000" stroke="none" 
	d="
M300.440979,272.849548 
	C285.623108,273.026367 271.127716,272.884827 256.635284,273.031891 
	C235.336212,273.248016 214.038101,273.614044 192.741806,274.029602 
	C182.769867,274.224182 172.803116,274.683746 162.357849,275.031158 
	C158.608170,271.231171 157.444778,266.805695 158.553894,261.434631 
	C165.549713,260.669250 172.016006,260.138245 178.488754,260.042328 
	C206.610504,259.625702 234.733704,259.286530 262.857330,259.021576 
	C276.181488,258.896027 289.507843,259.000275 302.833191,259.000397 
	C302.143738,263.553650 301.454254,268.106934 300.440979,272.849548 
z"/>
<path fill="#EE7A3A" opacity="1.000000" stroke="none" 
	d="
M158.166641,200.999512 
	C158.166641,196.535568 158.166641,192.071609 158.166641,187.304443 
	C206.337204,187.304443 254.354095,187.304443 302.973267,187.304443 
	C302.973267,190.884430 302.973267,194.483627 302.506927,198.635330 
	C299.409241,199.458527 296.779816,199.943985 294.146210,199.967789 
	C252.100266,200.347687 210.053772,200.670364 168.007355,200.999359 
	C164.727325,201.025024 161.446884,201.000641 158.166641,200.999512 
z"/>
<path fill="#E77451" opacity="1.000000" stroke="none" 
	d="
M158.166245,241.999237 
	C158.119324,238.303604 158.072403,234.607956 158.553650,230.456161 
	C169.215530,229.669266 179.346970,229.197556 189.483353,229.035309 
	C215.606018,228.617172 241.730423,228.291122 267.855072,228.020401 
	C279.513428,227.899582 291.174072,227.999969 302.833679,227.999954 
	C302.880157,231.695480 302.926636,235.391022 302.445068,239.542892 
	C284.787720,240.330200 267.659546,240.748550 250.528824,240.973022 
	C219.742096,241.376450 188.953857,241.663544 158.166245,241.999237 
z"/>
<path fill="#EA7649" opacity="1.000000" stroke="none" 
	d="
M302.903564,227.546295 
	C291.174072,227.999969 279.513428,227.899582 267.855072,228.020401 
	C241.730423,228.291122 215.606018,228.617172 189.483353,229.035309 
	C179.346970,229.197556 169.215530,229.669266 158.623749,230.000031 
	C158.119049,226.635757 158.072464,223.271454 158.504669,219.414124 
	C160.783615,218.622360 162.577011,218.116974 164.384949,218.058151 
	C176.829208,217.653229 189.274673,217.201157 201.723328,217.038513 
	C214.859558,216.866898 227.999863,217.028580 241.138199,216.986664 
	C246.787247,216.968643 252.436111,216.708817 258.084564,216.725143 
	C273.000854,216.768250 287.916931,216.902298 302.833069,217.000122 
	C302.879852,220.364304 302.926636,223.728470 302.903564,227.546295 
z"/>
<path fill="#E4705C" opacity="1.000000" stroke="none" 
	d="
M302.903198,258.544250 
	C289.507843,259.000275 276.181488,258.896027 262.857330,259.021576 
	C234.733704,259.286530 206.610504,259.625702 178.488754,260.042328 
	C172.016006,260.138245 165.549713,260.669250 158.623840,261.000183 
	C158.120346,257.305054 158.073441,253.609802 158.554626,249.458160 
	C177.211517,248.670807 195.339340,248.266815 213.469315,248.025452 
	C243.256821,247.628876 273.045746,247.337723 302.834045,247.002136 
	C302.880432,250.697464 302.926788,254.392776 302.903198,258.544250 
z"/>
<path fill="#EC7840" opacity="1.000000" stroke="none" 
	d="
M158.096008,201.449158 
	C161.446884,201.000641 164.727325,201.025024 168.007355,200.999359 
	C210.053772,200.670364 252.100266,200.347687 294.146210,199.967789 
	C296.779816,199.943985 299.409241,199.458527 302.437103,199.093750 
	C302.880524,202.033157 302.927429,205.066666 302.446045,208.549957 
	C286.453979,209.330612 270.991608,209.772858 255.526169,209.969177 
	C223.073685,210.381149 190.619583,210.663773 158.166138,210.999512 
	C158.119232,207.965927 158.072311,204.932373 158.096008,201.449158 
z"/>
<path fill="#E67257" opacity="1.000000" stroke="none" 
	d="
M302.904022,246.568527 
	C273.045746,247.337723 243.256821,247.628876 213.469315,248.025452 
	C195.339340,248.266815 177.211517,248.670807 158.624710,249.002197 
	C158.119812,246.957153 158.072937,244.911652 158.096161,242.432709 
	C188.953857,241.663544 219.742096,241.376450 250.528824,240.973022 
	C267.659546,240.748550 284.787720,240.330200 302.375061,239.998962 
	C302.880035,242.044113 302.927002,244.089508 302.904022,246.568527 
z"/>
<path fill="#DB687B" opacity="1.000000" stroke="none" 
	d="
M190.346344,296.007172 
	C191.590332,295.223328 193.168243,294.112671 194.769089,294.078552 
	C215.808502,293.630463 236.850388,293.253387 257.893494,293.057190 
	C263.112915,293.008545 268.338959,293.669281 273.783539,294.300812 
	C265.222473,297.354156 256.439789,300.110626 247.534058,302.905731 
	C247.806335,307.035797 248.114182,311.705322 247.813934,316.703918 
	C237.859299,317.022491 228.512772,317.011993 219.166229,317.001526 
	C218.777100,315.136536 218.274673,313.286591 218.024704,311.403137 
	C217.624008,308.383911 217.390503,305.342560 217.186874,303.312714 
	C207.772675,300.778687 199.231796,298.479706 190.346344,296.007172 
z"/>
<path fill="#EB7744" opacity="1.000000" stroke="none" 
	d="
M158.096085,211.439423 
	C190.619583,210.663773 223.073685,210.381149 255.526169,209.969177 
	C270.991608,209.772858 286.453979,209.330612 302.375793,208.999603 
	C302.880280,211.373047 302.926697,213.746643 302.903076,216.560181 
	C287.916931,216.902298 273.000854,216.768250 258.084564,216.725143 
	C252.436111,216.708817 246.787247,216.968643 241.138199,216.986664 
	C227.999863,217.028580 214.859558,216.866898 201.723328,217.038513 
	C189.274673,217.201157 176.829208,217.653229 164.384949,218.058151 
	C162.577011,218.116974 160.783615,218.622360 158.575027,218.960587 
	C158.119720,216.626480 158.072876,214.252899 158.096085,211.439423 
z"/>
<path fill="#F88317" opacity="1.000000" stroke="none" 
	d="
M261.166260,144.997574 
	C261.431519,138.277466 261.181427,131.485321 262.107666,124.857582 
	C263.024963,118.294327 265.217773,116.999138 271.551697,116.996536 
	C274.540802,116.995316 277.561615,117.277924 280.513367,116.945930 
	C291.290588,115.733772 292.030548,121.548584 292.911469,129.628525 
	C293.394440,134.058456 292.981110,138.586121 292.444855,143.533844 
	C281.667267,144.331177 271.416748,144.664368 261.166260,144.997574 
z"/>
<path fill="#F47F25" opacity="1.000000" stroke="none" 
	d="
M261.094452,145.460938 
	C271.416748,144.664368 281.667267,144.331177 292.375519,143.997162 
	C292.558167,150.898376 292.630585,157.838120 291.886444,164.689178 
	C291.385681,169.299332 287.775726,171.589630 283.290161,171.945419 
	C279.981262,172.207886 276.615479,171.766724 273.309021,172.044205 
	C265.064850,172.736008 261.591553,167.983139 261.058716,159.905014 
	C260.752655,155.264175 261.015778,150.585800 261.094452,145.460938 
z"/>
<path fill="#D6648B" opacity="1.000000" stroke="none" 
	d="
M219.097168,317.440796 
	C228.512772,317.011993 237.859299,317.022491 247.684998,317.044617 
	C249.116257,324.740173 250.068344,332.424103 250.594788,340.544739 
	C240.835403,340.991608 231.501663,341.001801 222.167908,341.012024 
	C221.121307,333.301392 220.074692,325.590729 219.097168,317.440796 
z"/>
<path fill="#F6811E" opacity="1.000000" stroke="none" 
	d="
M199.833710,136.002014 
	C199.879974,141.691452 199.926254,147.380890 199.475082,153.534821 
	C188.708038,154.331512 178.438431,154.663727 168.168823,154.995941 
	C168.120392,149.306458 168.071960,143.616959 168.516479,137.460632 
	C179.284180,136.663208 189.558929,136.332611 199.833710,136.002014 
z"/>
<path fill="#CE5DA3" opacity="1.000000" stroke="none" 
	d="
M261.066895,377.551453 
	C253.730911,378.304199 246.340134,378.565125 238.964447,379.053650 
	C236.768295,379.199097 234.614441,379.982971 232.198196,380.784302 
	C229.908585,374.674133 227.861969,368.253937 226.258896,361.384583 
	C234.085861,360.623810 241.478897,360.445984 248.846619,359.916107 
	C250.952377,359.764679 252.984756,358.593018 255.050781,357.889160 
	C257.039825,364.308319 259.028870,370.727509 261.066895,377.551453 
z"/>
<path fill="#F88317" opacity="1.000000" stroke="none" 
	d="
M199.903824,135.547882 
	C189.558929,136.332611 179.284180,136.663208 168.587921,136.997604 
	C167.795807,130.947067 167.294312,124.787956 171.222672,119.601204 
	C172.231125,118.269714 174.380447,117.260193 176.092987,117.111977 
	C180.213821,116.755333 184.386383,116.996193 188.538071,116.996254 
	C196.434555,116.996376 199.731888,120.175613 199.987137,128.119614 
	C200.061752,130.441803 199.982605,132.768921 199.903824,135.547882 
z"/>
<path fill="#D15F9D" opacity="1.000000" stroke="none" 
	d="
M255.028595,357.483521 
	C252.984756,358.593018 250.952377,359.764679 248.846619,359.916107 
	C241.478897,360.445984 234.085861,360.623810 226.272491,360.968811 
	C224.572342,354.610077 223.302139,348.217926 222.099915,341.418884 
	C231.501663,341.001801 240.835403,340.991608 250.645905,340.973572 
	C252.417236,346.336487 253.711823,351.707184 255.028595,357.483521 
z"/>
<path fill="#F47F25" opacity="1.000000" stroke="none" 
	d="
M168.097580,155.431519 
	C178.438431,154.663727 188.708038,154.331512 199.404816,153.997879 
	C200.018097,159.379776 200.790543,164.890396 196.366638,169.239960 
	C196.040482,169.560623 196.095474,170.290970 195.757935,170.574554 
	C192.655930,173.180847 175.119034,172.337250 171.963470,169.472549 
	C167.858643,165.746063 167.988556,160.792969 168.097580,155.431519 
z"/>
</svg>